HIERARCHY
ROOT Hips
{
	OFFSET -0.179506 -22.333345 2.821913
	CHANNELS 6 Xposition Yposition Zposition Zrotation Yrotation Xrotation 
	JOINT LeftUpLeg
	{
		OFFSET 6.951974 -9.140623 -0.681533
		CHANNELS 3 Zrotation Yrotation Xrotation
		JOINT LeftLeg
		{
			OFFSET 3.427654 -37.519855 -0.449580
			CHANNELS 3 Zrotation Yrotation Xrotation
			JOINT LeftFoot
			{
				OFFSET -1.359570 -39.796059 -4.369333
				CHANNELS 3 Zrotation Yrotation Xrotation
				JOINT LeftToe
				{
					OFFSET 2.635814 -5.579078 11.928840
					CHANNELS 3 Zrotation Yrotation Xrotation
					End Site
					{
						OFFSET 0.000000 0.000000 0.000000
					}
				}
			}
		}
	}
	JOINT RightUpLeg
	{
		OFFSET -6.767048 -9.052170 -0.431982
		CHANNELS 3 Zrotation Yrotation Xrotation
		JOINT RightLeg
		{
			OFFSET -3.829005 -38.256897 -0.885003
			CHANNELS 3 Zrotation Yrotation Xrotation
			JOINT RightFoot
			{
				OFFSET 1.577377 -39.841461 -4.231180
				CHANNELS 3 Zrotation Yrotation Xrotation
				JOINT RightToe
				{
					OFFSET -2.537174 -4.814398 12.334795
					CHANNELS 3 Zrotation Yrotation Xrotation
					End Site
					{
						OFFSET 0.000000 0.000000 0.000000
					}
				}
			}
		}
	}
	JOINT Spine
	{
		OFFSET -0.253288 10.896323 -2.669631
		CHANNELS 3 Zrotation Yrotation Xrotation
		JOINT Spine1
		{
			OFFSET 0.548704 13.518043 0.109247
			CHANNELS 3 Zrotation Yrotation Xrotation
			JOINT Spine2
			{
				OFFSET 0.145701 5.292222 2.542457
				CHANNELS 3 Zrotation Yrotation Xrotation
				JOINT Neck
				{
					OFFSET -0.277840 21.387037 -4.285703
					CHANNELS 3 Zrotation Yrotation Xrotation
					JOINT Head
					{
						OFFSET 0.515184 6.496960 5.134897
						CHANNELS 3 Zrotation Yrotation Xrotation
						End Site
						{
							OFFSET 0.000000 0.000000 0.000000
						}
					}
				}
				JOINT LeftShoulder
				{
					OFFSET 7.884473 12.174932 -3.408961
					CHANNELS 3 Zrotation Yrotation Xrotation
					JOINT LeftArm
					{
						OFFSET 9.097692 3.046888 -0.886815
						CHANNELS 3 Zrotation Yrotation Xrotation
						JOINT LeftForeArm
						{
							OFFSET 25.961220 -1.277207 -2.745643
							CHANNELS 3 Zrotation Yrotation Xrotation
							JOINT LeftHand
							{
								OFFSET 24.923361 0.898606 -0.117091
								CHANNELS 3 Zrotation Yrotation Xrotation
								End Site
								{
									OFFSET 0.000000 0.000000 0.000000
								}
							}
						}
					}
				}
				JOINT RightShoulder
				{
					OFFSET -8.175920 11.883285 -3.861528
					CHANNELS 3 Zrotation Yrotation Xrotation
					JOINT RightArm
					{
						OFFSET -9.601238 3.255117 -0.914307
						CHANNELS 3 Zrotation Yrotation Xrotation
						JOINT RightForeArm
						{
							OFFSET -25.374195 -1.332924 -2.140099
							CHANNELS 3 Zrotation Yrotation Xrotation
							JOINT RightHand
							{
								OFFSET -25.529810 0.777228 -0.555919
								CHANNELS 3 Zrotation Yrotation Xrotation
								End Site
								{
									OFFSET 0.000000 0.000000 0.000000
								}
							}
						}
					}
				}
			}
		}
	}
}
MOTION
Frames: 6
Frame Time: 0.033333
62.143066 40.025425 92.281593 -173.799453 -0.995896 89.812688 2.889856 2.866340 0.698441 -4.478708 -1.623916 -3.479623 2.006988 9.531860 -4.780817 nan nan nan -5.467899 -4.263073 2.274481 3.142115 -2.654903 -3.028894 4.649805 -6.656086 -4.863204 nan nan nan 0.618421 1.366547 2.661048 1.725409 -4.291386 5.683350 0.673556 -1.156550 -3.641519 -2.671934 2.547631 4.046432 0.426198 1.431418 14.631559 -30.691155 -4.002056 5.013005 -55.663072 -8.405753 17.119576 4.466180 -18.958496 11.493950 -7.106725 -13.681746 3.935692 31.478925 4.604582 6.171425 52.285370 5.489657 13.693179 -11.363929 20.354368 -3.746873 8.303679 8.290808 -1.915968 
62.130405 40.024075 92.259590 -173.731541 -0.910137 89.878929 3.027548 2.819217 0.618264 -4.521117 -1.618445 -3.444754 1.679911 9.580870 -4.749824 nan nan nan -5.372729 -4.259556 2.224157 3.143507 -2.591673 -3.013997 4.862419 -6.708825 -4.867982 nan nan nan 0.779154 1.259077 2.562526 1.625085 -4.219727 5.597570 0.665126 -1.129949 -3.417490 -2.537771 2.625391 3.611565 0.356229 1.410264 14.877396 -30.479839 -4.065960 5.042294 -55.905728 -8.591070 17.176384 4.497115 -18.790995 11.632995 -7.075872 -13.693609 3.952533 31.287318 4.548132 6.087768 52.610072 5.528424 13.815642 -11.642611 20.374475 -3.629200 8.203766 8.306022 -2.013823 
62.124687 40.036663 92.255562 -173.709301 -0.880654 89.899954 3.107576 2.874350 0.532248 -4.521964 -1.441923 -3.261368 1.410383 9.579321 -4.734415 nan nan nan -5.368430 -4.264905 2.111151 3.186133 -2.668687 -2.786585 4.912946 -6.669871 -4.946880 nan nan nan 0.814477 1.217103 2.492639 1.596980 -4.187566 5.592368 0.661636 -1.150703 -3.335373 -2.455231 2.727684 3.481398 0.316428 1.316224 14.779616 -30.369013 -4.092866 5.083638 -56.074114 -8.624408 17.147925 4.583563 -18.740304 11.617560 -7.050714 -13.754793 3.926569 31.183784 4.552240 6.071544 52.790798 5.558917 13.806206 -11.745680 20.377321 -3.600156 8.058015 8.344338 -2.087631 
62.121002 40.045223 92.255119 -173.666255 -0.896932 89.904241 3.118142 2.904487 0.502446 -4.566612 -1.417269 -3.222210 1.416979 9.542313 -4.783230 nan nan nan -5.463521 -4.388800 1.811517 3.289369 -2.757306 -2.173530 4.940364 -6.551104 -5.158620 nan nan nan 0.783952 1.177056 2.491646 1.587643 -4.176043 5.586538 0.653584 -1.171020 -3.318064 -2.377962 2.771851 3.360486 0.317237 1.257937 14.697869 -30.282281 -4.098593 5.059523 -56.155965 -8.628782 17.119720 4.576491 -18.699154 11.596924 -7.042365 -13.748277 3.897932 31.125860 4.550387 6.056367 52.916742 5.589240 13.799155 -11.777679 20.336643 -3.593029 8.071034 8.342384 -2.142778 
62.126556 40.072102 92.283012 -173.478680 -0.805243 89.973046 3.348718 2.870757 0.260723 -4.853278 -1.422309 -2.574156 2.222030 9.306624 -5.124633 nan nan nan -5.350785 -4.447537 1.974967 3.958113 -2.930418 -1.781740 2.677180 -7.484623 -6.516712 nan nan nan 0.782742 1.086928 2.338700 1.643795 -4.247389 5.837313 0.728711 -1.012460 -3.550207 -2.322706 2.987614 3.466709 0.361852 1.209201 14.456462 -30.317797 -4.356353 5.140308 -56.330383 -8.617350 17.004664 4.798861 -18.384351 11.811959 -8.142036 -14.243102 3.832131 31.158651 4.570062 6.010746 52.993755 5.184903 13.552567 -12.284354 20.653588 -3.523174 9.161180 8.434699 -2.373679 
62.094250 40.036999 92.227196 -173.382167 -0.764223 90.333277 3.208135 2.830829 0.186826 -4.722874 -1.965123 -3.246598 3.140869 9.676680 -4.894642 nan nan nan -5.495254 -4.369245 1.606312 4.471951 -3.046853 -1.822200 2.083011 -8.097207 -6.494654 nan nan nan 0.842078 0.882277 1.503796 1.630996 -4.291942 6.769504 0.797159 -0.885614 -3.703105 -2.616765 3.646288 2.985834 0.766000 1.154129 13.855462 -30.346437 -4.452733 4.837497 -56.438947 -9.033036 16.595295 4.475381 -17.346049 12.118070 -13.217363 -14.988311 3.853984 30.703691 4.710235 5.925945 53.571340 4.979674 13.401311 -13.082433 21.116303 -3.370255 11.217924 8.520352 -2.598503 
